<!DOCTYPE svg PUBLIC "-//W3C//DTD SVG 20010904//EN" "http://www.w3.org/TR/2001/REC-SVG-20010904/DTD/svg10.dtd">
<svg version="1.0" xmlns="http://www.w3.org/2000/svg" width="680px" height="732px" viewBox="0 0 6800 7320" preserveAspectRatio="xMidYMid meet">
<g id="layer101" fill="#121212" stroke="none">
 <path d="M0 3660 l0 -3660 3400 0 3400 0 0 3660 0 3660 -3400 0 -3400 0 0 -3660z"/>
 </g>
<g id="layer102" fill="#00c2ee" stroke="none">
 <path d="M0 3660 l0 -3660 3400 0 3400 0 0 3660 0 3660 -3400 0 -3400 0 0 -3660z m2610 3313 c63 -43 93 -75 147 -157 57 -87 253 -504 253 -539 0 -38 -41 -81 -68 -73 -26 9 -64 70 -91 147 -10 30 -37 92 -59 139 -39 84 -40 85 -51 57 -6 -16 -11 -88 -11 -165 0 -153 -14 -204 -58 -210 -49 -7 -59 18 -67 162 -10 181 8 266 69 327 l25 26 -39 67 c-88 151 -143 183 -234 139 -29 -13 -40 -14 -61 -5 -22 10 -26 18 -23 45 2 27 10 36 48 55 66 34 158 28 220 -15z m2225 -8 c45 -46 87 -129 115 -230 47 -171 90 -296 114 -332 35 -51 33 -81 -9 -134 -97 -125 -186 -129 -301 -14 -70 69 -101 122 -115 201 -28 154 106 229 224 126 9 -8 19 -13 22 -10 9 9 -83 271 -103 291 -20 19 -22 19 -46 3 -14 -9 -35 -34 -46 -56 -18 -35 -25 -40 -56 -40 -48 0 -52 19 -20 94 56 131 149 173 221 101z m-1415 -183 c25 -13 63 -38 85 -56 37 -32 39 -35 27 -61 -10 -22 -17 -26 -35 -21 -12 4 -73 18 -135 31 -118 25 -156 23 -193 -11 -26 -23 -25 -102 1 -203 38 -144 165 -421 261 -565 43 -64 46 -81 23 -114 -23 -33 -49 -27 -97 24 -162 169 -370 703 -329 842 17 55 70 123 112 144 54 27 219 21 280 -10z m-2344 -28 c130 -26 251 -100 290 -176 30 -57 -32 -79 -98 -34 -103 69 -204 106 -294 106 -70 0 -135 -47 -150 -107 -8 -29 20 -147 42 -181 12 -18 19 -21 27 -13 19 19 77 12 251 -31 190 -47 212 -59 195 -108 -19 -52 -33 -53 -188 -15 -145 36 -201 43 -201 25 0 -9 38 -69 125 -197 33 -49 38 -52 103 -67 37 -8 112 -22 165 -31 147 -24 177 -44 139 -95 -17 -22 -28 -25 -86 -28 -45 -2 -95 4 -148 18 -61 16 -83 18 -94 9 -38 -31 -204 73 -204 128 0 12 -13 44 -30 70 -16 26 -30 50 -30 54 0 4 -24 47 -54 96 -77 127 -95 166 -117 250 -33 129 -21 195 45 258 88 84 161 101 312 69z m3431 -26 c8 -6 12 -53 12 -141 0 -73 5 -154 10 -182 13 -67 89 -287 140 -404 47 -108 50 -134 19 -155 -30 -21 -61 -20 -82 3 -23 25 -85 171 -126 296 -42 127 -43 128 -87 110 -106 -45 -206 13 -279 161 -48 96 -56 178 -23 223 67 90 126 84 260 -28 l36 -31 6 63 c5 51 10 66 32 85 27 23 54 23 82 0z m-2184 -2 c64 -23 80 -44 74 -96 -5 -46 -5 -47 -130 -156 -45 -38 -46 -42 -37 -74 12 -43 78 -110 141 -145 71 -38 90 -20 43 42 -29 38 -28 59 1 79 47 31 135 -54 135 -130 0 -31 -7 -47 -32 -73 -29 -30 -37 -33 -90 -33 -89 0 -188 57 -270 157 -78 94 -70 175 25 255 29 25 60 47 70 51 9 3 17 11 17 16 0 17 -40 23 -115 16 -64 -6 -76 -5 -81 9 -15 40 79 96 161 95 28 0 67 -6 88 -13z m1529 -18 c43 -13 123 -78 133 -108 9 -27 -12 -60 -38 -60 -12 0 -42 14 -66 30 -42 29 -81 37 -115 24 -23 -9 -39 -66 -26 -98 10 -26 11 -27 69 -20 83 9 126 -1 170 -42 47 -42 85 -124 76 -164 -15 -69 -116 -114 -203 -91 -63 18 -144 98 -189 188 -35 70 -38 83 -38 164 0 103 14 130 85 167 50 25 85 27 142 10z m1546 -14 c48 -24 112 -86 112 -108 0 -17 -33 -46 -52 -46 -10 0 -37 14 -60 30 -45 33 -107 41 -127 17 -18 -22 -24 -73 -12 -96 11 -19 17 -20 84 -15 62 6 79 3 115 -15 79 -40 134 -144 108 -205 -37 -87 -150 -109 -252 -50 -115 68 -204 287 -165 406 32 96 146 134 249 82z m-3741 -25 c21 -13 65 -49 99 -81 l61 -58 18 40 c37 83 127 131 180 96 17 -11 25 -26 25 -46 0 -24 -6 -32 -34 -44 -64 -27 -88 -127 -53 -223 l16 -42 -62 -57 c-109 -99 -138 -103 -226 -34 -104 83 -253 331 -237 395 8 32 61 83 90 87 33 6 81 -8 123 -33z m4037 13 c9 -11 23 -45 32 -78 8 -32 26 -73 39 -90 51 -67 178 -151 261 -173 22 -6 48 -19 57 -29 15 -16 15 -20 -6 -46 -26 -32 -74 -38 -130 -15 -42 16 -177 116 -177 131 0 6 -2 9 -5 6 -3 -3 7 -31 21 -64 54 -120 51 -154 -11 -154 -29 0 -39 6 -55 33 -41 66 -101 259 -125 400 -5 33 -2 41 24 67 34 35 51 37 75 12z"/>
 <path d="M4757 6500 c-17 -64 77 -209 137 -213 98 -7 7 214 -95 230 -31 4 -37 2 -42 -17z"/>
 <path d="M4194 6550 c20 -101 100 -204 154 -198 16 2 32 13 41 29 13 24 13 31 -3 67 -27 59 -124 132 -177 132 -19 0 -21 -4 -15 -30z"/>
 <path d="M3818 6383 c-16 -2 -28 -10 -28 -17 0 -17 70 -82 97 -90 26 -8 63 9 63 28 0 17 -76 86 -93 85 -6 -1 -24 -4 -39 -6z"/>
 <path d="M5333 6383 c-18 -3 -33 -8 -33 -12 0 -16 99 -101 118 -101 10 0 26 6 36 13 21 16 13 38 -26 73 -27 25 -51 32 -95 27z"/>
 <path d="M1591 6543 c34 -91 157 -253 192 -253 9 0 24 11 33 25 16 24 15 27 -11 67 -41 61 -183 187 -212 188 -9 0 -10 -7 -2 -27z"/>
 </g>
<g id="layer103" fill="#ffffff" stroke="none">
 <path d="M0 3660 l0 -3660 3400 0 3400 0 0 3660 0 3660 -3400 0 -3400 0 0 -3660z m2610 3313 c63 -43 93 -75 147 -157 57 -87 253 -504 253 -539 0 -38 -41 -81 -68 -73 -26 9 -64 70 -91 147 -10 30 -37 92 -59 139 -39 84 -40 85 -51 57 -6 -16 -11 -88 -11 -165 0 -153 -14 -204 -58 -210 -49 -7 -59 18 -67 162 -10 181 8 266 69 327 l25 26 -39 67 c-88 151 -143 183 -234 139 -29 -13 -40 -14 -61 -5 -22 10 -26 18 -23 45 2 27 10 36 48 55 66 34 158 28 220 -15z m2225 -8 c45 -46 87 -129 115 -230 47 -171 90 -296 114 -332 35 -51 33 -81 -9 -134 -97 -125 -186 -129 -301 -14 -70 69 -101 122 -115 201 -28 154 106 229 224 126 9 -8 19 -13 22 -10 9 9 -83 271 -103 291 -20 19 -22 19 -46 3 -14 -9 -35 -34 -46 -56 -18 -35 -25 -40 -56 -40 -48 0 -52 19 -20 94 56 131 149 173 221 101z m-1415 -183 c25 -13 63 -38 85 -56 37 -32 39 -35 27 -61 -10 -22 -17 -26 -35 -21 -12 4 -73 18 -135 31 -118 25 -156 23 -193 -11 -26 -23 -25 -102 1 -203 38 -144 165 -421 261 -565 43 -64 46 -81 23 -114 -23 -33 -49 -27 -97 24 -162 169 -370 703 -329 842 17 55 70 123 112 144 54 27 219 21 280 -10z m-2344 -28 c130 -26 251 -100 290 -176 30 -57 -32 -79 -98 -34 -103 69 -204 106 -294 106 -70 0 -135 -47 -150 -107 -8 -29 20 -147 42 -181 12 -18 19 -21 27 -13 19 19 77 12 251 -31 190 -47 212 -59 195 -108 -19 -52 -33 -53 -188 -15 -145 36 -201 43 -201 25 0 -9 38 -69 125 -197 33 -49 38 -52 103 -67 37 -8 112 -22 165 -31 147 -24 177 -44 139 -95 -17 -22 -28 -25 -86 -28 -45 -2 -95 4 -148 18 -61 16 -83 18 -94 9 -38 -31 -204 73 -204 128 0 12 -13 44 -30 70 -16 26 -30 50 -30 54 0 4 -24 47 -54 96 -77 127 -95 166 -117 250 -33 129 -21 195 45 258 88 84 161 101 312 69z m3431 -26 c8 -6 12 -53 12 -141 0 -73 5 -154 10 -182 13 -67 89 -287 140 -404 47 -108 50 -134 19 -155 -30 -21 -61 -20 -82 3 -23 25 -85 171 -126 296 -42 127 -43 128 -87 110 -106 -45 -206 13 -279 161 -48 96 -56 178 -23 223 67 90 126 84 260 -28 l36 -31 6 63 c5 51 10 66 32 85 27 23 54 23 82 0z m-2184 -2 c64 -23 80 -44 74 -96 -5 -46 -5 -47 -130 -156 -45 -38 -46 -42 -37 -74 12 -43 78 -110 141 -145 71 -38 90 -20 43 42 -29 38 -28 59 1 79 47 31 135 -54 135 -130 0 -31 -7 -47 -32 -73 -29 -30 -37 -33 -90 -33 -89 0 -188 57 -270 157 -78 94 -70 175 25 255 29 25 60 47 70 51 9 3 17 11 17 16 0 17 -40 23 -115 16 -64 -6 -76 -5 -81 9 -15 40 79 96 161 95 28 0 67 -6 88 -13z m1529 -18 c43 -13 123 -78 133 -108 9 -27 -12 -60 -38 -60 -12 0 -42 14 -66 30 -42 29 -81 37 -115 24 -23 -9 -39 -66 -26 -98 10 -26 11 -27 69 -20 83 9 126 -1 170 -42 47 -42 85 -124 76 -164 -15 -69 -116 -114 -203 -91 -63 18 -144 98 -189 188 -35 70 -38 83 -38 164 0 103 14 130 85 167 50 25 85 27 142 10z m1546 -14 c48 -24 112 -86 112 -108 0 -17 -33 -46 -52 -46 -10 0 -37 14 -60 30 -45 33 -107 41 -127 17 -18 -22 -24 -73 -12 -96 11 -19 17 -20 84 -15 62 6 79 3 115 -15 79 -40 134 -144 108 -205 -37 -87 -150 -109 -252 -50 -115 68 -204 287 -165 406 32 96 146 134 249 82z m-3741 -25 c21 -13 65 -49 99 -81 l61 -58 18 40 c37 83 127 131 180 96 17 -11 25 -26 25 -46 0 -24 -6 -32 -34 -44 -64 -27 -88 -127 -53 -223 l16 -42 -62 -57 c-109 -99 -138 -103 -226 -34 -104 83 -253 331 -237 395 8 32 61 83 90 87 33 6 81 -8 123 -33z m4037 13 c9 -11 23 -45 32 -78 8 -32 26 -73 39 -90 51 -67 178 -151 261 -173 22 -6 48 -19 57 -29 15 -16 15 -20 -6 -46 -26 -32 -74 -38 -130 -15 -42 16 -177 116 -177 131 0 6 -2 9 -5 6 -3 -3 7 -31 21 -64 54 -120 51 -154 -11 -154 -29 0 -39 6 -55 33 -41 66 -101 259 -125 400 -5 33 -2 41 24 67 34 35 51 37 75 12z m-584 -1707 c64 -33 60 105 60 -1880 0 -1561 -2 -1810 -15 -1834 -20 -40 -71 -61 -148 -61 l-66 0 -3 -312 c-3 -340 -4 -344 -61 -378 -31 -19 -63 -20 -1432 -20 -1523 0 -1452 -3 -1571 55 -66 32 -153 120 -192 193 -66 124 -62 -9 -62 1999 0 1288 3 1838 11 1875 36 172 181 322 352 364 40 10 392 12 1575 13 1343 1 1526 -1 1552 -14z"/>
 <path d="M4757 6500 c-17 -64 77 -209 137 -213 98 -7 7 214 -95 230 -31 4 -37 2 -42 -17z"/>
 <path d="M4194 6550 c20 -101 100 -204 154 -198 16 2 32 13 41 29 13 24 13 31 -3 67 -27 59 -124 132 -177 132 -19 0 -21 -4 -15 -30z"/>
 <path d="M3818 6383 c-16 -2 -28 -10 -28 -17 0 -17 70 -82 97 -90 26 -8 63 9 63 28 0 17 -76 86 -93 85 -6 -1 -24 -4 -39 -6z"/>
 <path d="M5333 6383 c-18 -3 -33 -8 -33 -12 0 -16 99 -101 118 -101 10 0 26 6 36 13 21 16 13 38 -26 73 -27 25 -51 32 -95 27z"/>
 <path d="M1591 6543 c34 -91 157 -253 192 -253 9 0 24 11 33 25 16 24 15 27 -11 67 -41 61 -183 187 -212 188 -9 0 -10 -7 -2 -27z"/>
 <path d="M1993 4729 c-48 -24 -99 -77 -119 -125 -12 -28 -14 -298 -14 -1630 0 -1516 1 -1596 18 -1589 9 5 42 18 72 29 55 21 60 21 1523 24 l1467 2 0 1655 0 1655 -1452 0 -1453 0 -42 -21z m500 -1170 c12 -6 113 -102 224 -212 l203 -201 207 206 c221 219 239 231 305 209 23 -8 151 -128 408 -386 206 -206 378 -375 382 -375 5 0 8 103 8 230 l0 230 28 30 c52 59 152 48 187 -20 14 -26 15 -84 13 -426 l-3 -396 -33 -29 -32 -29 -401 0 -401 0 -34 34 c-29 29 -34 41 -34 80 0 36 6 52 29 78 l29 33 236 3 c130 2 236 6 236 10 0 4 -146 153 -325 332 l-325 325 -207 -207 c-132 -131 -218 -209 -236 -213 -67 -17 -80 -8 -354 268 -143 144 -264 273 -268 285 -11 37 3 86 33 114 42 39 83 48 125 27z"/>
 <path d="M1995 1176 c-94 -43 -142 -130 -132 -238 6 -72 39 -126 106 -173 l43 -30 1344 -3 1344 -2 0 235 0 235 -1327 0 -1328 0 -50 -24z"/>
 </g>

</svg>