<!DOCTYPE svg PUBLIC "-//W3C//DTD SVG 20010904//EN" "http://www.w3.org/TR/2001/REC-SVG-20010904/DTD/svg10.dtd">
<svg version="1.0" xmlns="http://www.w3.org/2000/svg" width="434px" height="513px" viewBox="0 0 4340 5130" preserveAspectRatio="xMidYMid meet">
<g id="layer101" fill="#00c2ee" stroke="none">
 <path d="M0 2565 l0 -2565 2170 0 2170 0 0 2565 0 2565 -2170 0 -2170 0 0 -2565z"/>
 </g>
<g id="layer102" fill="#ffffff" stroke="none">
 <path d="M0 2565 l0 -2565 2170 0 2170 0 0 2565 0 2565 -2170 0 -2170 0 0 -2565z m3840 2230 c64 -33 60 105 60 -1880 0 -1561 -2 -1810 -15 -1834 -20 -40 -71 -61 -148 -61 l-66 0 -3 -312 c-3 -340 -4 -344 -61 -378 -31 -19 -63 -20 -1432 -20 -1523 0 -1452 -3 -1571 55 -66 32 -153 120 -192 193 -66 124 -62 -9 -62 1999 0 1288 3 1838 11 1875 36 172 181 322 352 364 40 10 392 12 1575 13 1343 1 1526 -1 1552 -14z"/>
 <path d="M723 4549 c-48 -24 -99 -77 -119 -125 -12 -28 -14 -298 -14 -1630 0 -1516 1 -1596 17 -1589 10 5 43 18 73 29 55 21 60 21 1523 24 l1467 2 0 1655 0 1655 -1452 0 -1453 0 -42 -21z m500 -1170 c12 -6 113 -102 224 -212 l203 -201 207 206 c221 219 239 231 305 209 23 -8 151 -128 408 -386 206 -206 378 -375 382 -375 5 0 8 103 8 230 l0 230 28 30 c52 59 152 48 187 -20 14 -26 15 -84 13 -426 l-3 -396 -33 -29 -32 -29 -401 0 -401 0 -34 34 c-29 29 -34 41 -34 80 0 36 6 52 29 78 l29 33 236 3 c130 2 236 6 236 10 0 4 -146 153 -325 332 l-325 325 -207 -207 c-132 -131 -218 -209 -236 -213 -67 -17 -80 -8 -354 268 -143 144 -264 273 -268 285 -11 37 3 86 33 114 42 39 83 48 125 27z"/>
 <path d="M725 996 c-94 -43 -142 -130 -132 -238 6 -72 39 -126 106 -173 l43 -30 1344 -3 1344 -2 0 235 0 235 -1327 0 -1328 0 -50 -24z"/>
 </g>

</svg>