<!DOCTYPE svg PUBLIC "-//W3C//DTD SVG 20010904//EN" "http://www.w3.org/TR/2001/REC-SVG-20010904/DTD/svg10.dtd">
<svg version="1.0" xmlns="http://www.w3.org/2000/svg" width="626px" height="202px" viewBox="0 0 6260 2020" preserveAspectRatio="xMidYMid meet">
<g id="layer101" fill="#121212" stroke="none">
 <path d="M0 1010 l0 -1010 3130 0 3130 0 0 1010 0 1010 -3130 0 -3130 0 0 -1010z"/>
 </g>
<g id="layer102" fill="#ffffff" stroke="none">
 <path d="M0 1010 l0 -1010 3130 0 3130 0 0 1010 0 1010 -3130 0 -3130 0 0 -1010z m2430 572 c102 -70 165 -170 318 -502 71 -155 73 -166 39 -206 -45 -52 -76 -18 -146 161 -18 44 -42 100 -56 125 l-23 45 -11 -28 c-6 -16 -11 -87 -11 -158 0 -157 -12 -199 -59 -199 -20 0 -34 7 -40 19 -6 10 -14 81 -17 157 -8 159 5 222 56 286 l30 37 -41 68 c-48 80 -74 110 -111 129 -35 18 -69 18 -94 -1 -40 -30 -94 -13 -94 30 0 45 56 73 146 74 54 1 66 -3 114 -37z m2114 -3 c19 -17 47 -54 61 -82 22 -47 83 -233 115 -357 6 -25 25 -66 41 -91 43 -68 38 -91 -34 -166 -83 -86 -162 -80 -259 19 -66 67 -94 117 -108 190 -13 65 0 108 41 143 41 34 87 33 146 -4 26 -17 49 -29 50 -28 5 5 -77 241 -92 263 -8 13 -24 24 -35 24 -19 0 -70 -57 -70 -77 0 -25 -61 -31 -80 -8 -10 12 -6 26 18 77 35 71 46 86 82 111 38 27 84 22 124 -14z m-1368 -164 c55 -23 134 -85 134 -105 0 -39 -22 -41 -134 -15 -122 29 -156 31 -195 10 -48 -24 -53 -69 -21 -199 34 -141 184 -464 267 -574 20 -26 23 -38 16 -59 -13 -38 -36 -50 -66 -34 -62 33 -177 223 -255 421 -30 74 -57 144 -62 155 -16 37 -40 164 -40 212 0 65 49 148 105 180 33 19 55 23 128 23 55 0 101 -5 123 -15z m-2142 -54 c33 -12 79 -32 102 -46 53 -31 114 -101 114 -132 0 -20 -5 -23 -40 -23 -30 0 -54 10 -98 39 -59 41 -178 81 -240 81 -45 0 -95 -22 -120 -55 -27 -34 -29 -103 -6 -172 22 -65 32 -76 51 -57 11 10 26 13 51 8 78 -13 345 -84 358 -95 8 -6 14 -21 14 -33 0 -29 -37 -68 -58 -62 -55 17 -270 66 -289 66 -13 0 -23 -5 -23 -12 0 -11 37 -71 110 -180 41 -60 53 -65 242 -98 162 -27 193 -47 146 -97 -19 -20 -31 -23 -92 -23 -39 0 -93 7 -121 16 -32 9 -66 13 -97 9 -41 -6 -52 -3 -100 28 -62 40 -103 81 -94 96 6 9 -74 163 -114 221 -38 54 -90 169 -104 230 -21 85 -20 136 3 185 21 45 46 70 111 109 43 26 50 27 140 22 59 -3 118 -12 154 -25z m3194 0 c10 -6 15 -47 17 -157 3 -123 8 -163 28 -229 35 -111 89 -257 126 -339 17 -38 31 -77 31 -87 0 -18 -44 -59 -65 -59 -35 0 -71 69 -145 280 -54 152 -36 137 -152 124 -66 -8 -111 16 -164 88 -53 72 -84 153 -84 218 0 45 4 54 40 90 22 22 50 40 62 40 33 0 101 -36 151 -80 l45 -40 7 52 c8 55 20 88 39 100 15 10 48 10 64 -1z m-2051 -21 c29 -13 44 -27 49 -44 14 -56 -8 -89 -120 -181 -45 -37 -48 -43 -42 -72 4 -18 26 -51 49 -73 78 -79 177 -118 146 -58 -6 13 -20 33 -31 45 -16 17 -17 25 -9 41 16 30 35 33 77 11 78 -38 98 -130 43 -187 -27 -28 -38 -32 -83 -32 -69 0 -143 36 -216 106 -65 62 -90 105 -90 157 0 58 25 99 90 147 33 24 60 48 60 51 0 13 -50 19 -105 13 -96 -12 -109 32 -23 75 56 27 147 28 205 1z m1456 -16 c47 -24 107 -85 107 -109 0 -25 -18 -45 -40 -45 -8 0 -35 14 -60 30 -81 54 -144 34 -138 -44 l3 -41 80 0 c115 0 171 -37 210 -139 16 -41 16 -46 1 -78 -18 -38 -54 -63 -107 -73 -92 -17 -193 55 -256 183 -35 69 -38 83 -38 158 0 68 4 88 21 111 43 59 148 82 217 47z m1469 -13 c41 -26 88 -78 88 -97 0 -13 -33 -44 -47 -44 -8 0 -34 14 -57 31 -57 40 -114 39 -134 -4 -8 -16 -11 -40 -7 -57 l7 -30 81 3 c70 2 87 -1 118 -20 47 -30 91 -96 97 -148 3 -34 -1 -47 -23 -73 -49 -58 -138 -65 -221 -16 -52 29 -86 70 -127 148 -29 56 -32 69 -32 157 0 83 3 100 20 119 61 68 158 81 237 31z m-3605 -3 c25 -13 74 -49 109 -82 36 -32 66 -57 68 -55 2 2 13 22 24 44 29 58 55 77 111 83 44 4 51 2 66 -21 13 -20 14 -30 5 -46 -6 -12 -17 -21 -25 -21 -24 0 -53 -40 -65 -89 -9 -39 -8 -56 8 -109 l20 -62 -72 -60 c-80 -69 -103 -78 -147 -60 -28 12 -128 103 -154 141 -47 67 -68 103 -94 159 -48 105 -48 111 -3 159 46 49 81 53 149 19z m3878 -18 c7 -14 19 -47 26 -75 10 -38 25 -62 63 -101 56 -55 157 -116 222 -133 57 -15 70 -33 49 -65 -39 -59 -134 -36 -252 62 l-62 52 34 -72 c38 -79 43 -109 21 -127 -29 -24 -69 -9 -93 34 -41 72 -113 320 -113 386 0 32 39 71 68 67 13 -2 30 -14 37 -28z"/>
 <path d="M4474 1135 c-12 -30 24 -119 65 -164 31 -34 45 -42 68 -39 24 3 28 8 31 41 2 26 -5 52 -24 87 -34 63 -53 79 -98 87 -28 4 -37 2 -42 -12z"/>
 <path d="M3940 1210 c-10 -6 -10 -15 0 -46 40 -124 123 -201 171 -158 23 21 24 45 3 90 -26 55 -144 133 -174 114z"/>
 <path d="M3573 1023 c-32 -6 -29 -20 16 -65 33 -32 46 -39 73 -36 44 4 49 34 11 70 -30 28 -63 39 -100 31z"/>
 <path d="M5018 1023 c-16 -2 -28 -8 -28 -12 0 -19 91 -91 114 -91 36 0 51 24 32 51 -17 25 -66 60 -81 57 -5 0 -22 -3 -37 -5z"/>
 <path d="M1450 1200 c0 -36 124 -231 160 -250 30 -16 50 -12 62 15 9 21 7 30 -15 64 -42 63 -207 199 -207 171z"/>
 </g>

</svg>